<mxfile host="65bd71144e">
    <diagram id="aMeuPBMTOFZDnhiGnHkx" name="Page-1">
        <mxGraphModel dx="1748" dy="1720" grid="1" gridSize="10" guides="1" tooltips="1" connect="1" arrows="1" fold="1" page="1" pageScale="1" pageWidth="827" pageHeight="1169" math="0" shadow="0">
            <root>
                <mxCell id="0"/>
                <mxCell id="1" parent="0"/>
                <mxCell id="2" value="Professor" style="shape=umlActor;verticalLabelPosition=bottom;verticalAlign=top;html=1;fontFamily=&quot;Times New Roman&quot;, SimSun, sans-serif;" parent="1" vertex="1">
                    <mxGeometry x="100" y="210" width="30" height="60" as="geometry"/>
                </mxCell>
                <mxCell id="3" value="Student" style="shape=umlActor;verticalLabelPosition=bottom;verticalAlign=top;html=1;fontFamily=&quot;Times New Roman&quot;, SimSun, sans-serif;" parent="1" vertex="1">
                    <mxGeometry x="100" y="482.25" width="30" height="60" as="geometry"/>
                </mxCell>
                <mxCell id="5" value="教授端界面" style="shape=umlBoundary;whiteSpace=wrap;html=1;fontFamily=&quot;Times New Roman&quot;, SimSun, sans-serif;" parent="1" vertex="1">
                    <mxGeometry x="250" y="200" width="100" height="80" as="geometry"/>
                </mxCell>
                <mxCell id="6" value="学生端界面" style="shape=umlBoundary;whiteSpace=wrap;html=1;fontFamily=&quot;Times New Roman&quot;, SimSun, sans-serif;" parent="1" vertex="1">
                    <mxGeometry x="250" y="472.25" width="100" height="80" as="geometry"/>
                </mxCell>
                <mxCell id="7" value="创建小组" style="ellipse;shape=umlControl;whiteSpace=wrap;html=1;fontFamily=&quot;Times New Roman&quot;, SimSun, sans-serif;" parent="1" vertex="1">
                    <mxGeometry x="430" y="360" width="70" height="80" as="geometry"/>
                </mxCell>
                <mxCell id="8" value="加入小组" style="ellipse;shape=umlControl;whiteSpace=wrap;html=1;fontFamily=&quot;Times New Roman&quot;, SimSun, sans-serif;" parent="1" vertex="1">
                    <mxGeometry x="430" y="472.25" width="70" height="80" as="geometry"/>
                </mxCell>
                <mxCell id="9" value="退出小组" style="ellipse;shape=umlControl;whiteSpace=wrap;html=1;fontFamily=&quot;Times New Roman&quot;, SimSun, sans-serif;" parent="1" vertex="1">
                    <mxGeometry x="430" y="584.5" width="70" height="80" as="geometry"/>
                </mxCell>
                <mxCell id="10" value="停止分组" style="ellipse;shape=umlControl;whiteSpace=wrap;html=1;fontFamily=&quot;Times New Roman&quot;, SimSun, sans-serif;" parent="1" vertex="1">
                    <mxGeometry x="430" y="140" width="70" height="80" as="geometry"/>
                </mxCell>
                <mxCell id="11" value="调整分组" style="ellipse;shape=umlControl;whiteSpace=wrap;html=1;fontFamily=&quot;Times New Roman&quot;, SimSun, sans-serif;" vertex="1" parent="1">
                    <mxGeometry x="430" y="250" width="70" height="80" as="geometry"/>
                </mxCell>
                <mxCell id="12" value="移出小组" style="ellipse;shape=umlControl;whiteSpace=wrap;html=1;fontFamily=&quot;Times New Roman&quot;, SimSun, sans-serif;" vertex="1" parent="1">
                    <mxGeometry x="580" y="470" width="70" height="80" as="geometry"/>
                </mxCell>
                <mxCell id="13" value="移入小组" style="ellipse;shape=umlControl;whiteSpace=wrap;html=1;fontFamily=&quot;Times New Roman&quot;, SimSun, sans-serif;" vertex="1" parent="1">
                    <mxGeometry x="580" y="360" width="70" height="80" as="geometry"/>
                </mxCell>
                <mxCell id="15" value="" style="endArrow=none;html=1;fontFamily=&quot;Times New Roman&quot;, SimSun, sans-serif;" edge="1" parent="1" source="5" target="10">
                    <mxGeometry width="50" height="50" relative="1" as="geometry">
                        <mxPoint x="390" y="260" as="sourcePoint"/>
                        <mxPoint x="440" y="210" as="targetPoint"/>
                    </mxGeometry>
                </mxCell>
                <mxCell id="16" value="" style="endArrow=none;html=1;fontFamily=&quot;Times New Roman&quot;, SimSun, sans-serif;" edge="1" parent="1" source="5" target="11">
                    <mxGeometry width="50" height="50" relative="1" as="geometry">
                        <mxPoint x="360" y="350" as="sourcePoint"/>
                        <mxPoint x="410" y="300" as="targetPoint"/>
                    </mxGeometry>
                </mxCell>
                <mxCell id="17" value="" style="endArrow=none;html=1;fontFamily=&quot;Times New Roman&quot;, SimSun, sans-serif;" edge="1" parent="1" source="6" target="7">
                    <mxGeometry width="50" height="50" relative="1" as="geometry">
                        <mxPoint x="290" y="420" as="sourcePoint"/>
                        <mxPoint x="340" y="370" as="targetPoint"/>
                    </mxGeometry>
                </mxCell>
                <mxCell id="18" value="" style="endArrow=none;html=1;fontFamily=&quot;Times New Roman&quot;, SimSun, sans-serif;" edge="1" parent="1" source="6" target="8">
                    <mxGeometry width="50" height="50" relative="1" as="geometry">
                        <mxPoint x="340" y="610" as="sourcePoint"/>
                        <mxPoint x="390" y="560" as="targetPoint"/>
                    </mxGeometry>
                </mxCell>
                <mxCell id="19" value="" style="endArrow=none;html=1;fontFamily=&quot;Times New Roman&quot;, SimSun, sans-serif;" edge="1" parent="1" source="6" target="9">
                    <mxGeometry width="50" height="50" relative="1" as="geometry">
                        <mxPoint x="320" y="630" as="sourcePoint"/>
                        <mxPoint x="370" y="580" as="targetPoint"/>
                    </mxGeometry>
                </mxCell>
                <mxCell id="20" value="" style="endArrow=none;html=1;fontFamily=&quot;Times New Roman&quot;, SimSun, sans-serif;" edge="1" parent="1" source="8" target="13">
                    <mxGeometry width="50" height="50" relative="1" as="geometry">
                        <mxPoint x="590" y="600" as="sourcePoint"/>
                        <mxPoint x="640" y="550" as="targetPoint"/>
                    </mxGeometry>
                </mxCell>
                <mxCell id="21" value="" style="endArrow=none;html=1;fontFamily=&quot;Times New Roman&quot;, SimSun, sans-serif;" edge="1" parent="1" source="7" target="13">
                    <mxGeometry width="50" height="50" relative="1" as="geometry">
                        <mxPoint x="550" y="660" as="sourcePoint"/>
                        <mxPoint x="600" y="610" as="targetPoint"/>
                    </mxGeometry>
                </mxCell>
                <mxCell id="22" value="" style="endArrow=none;html=1;fontFamily=&quot;Times New Roman&quot;, SimSun, sans-serif;" edge="1" parent="1" source="9" target="12">
                    <mxGeometry width="50" height="50" relative="1" as="geometry">
                        <mxPoint x="600" y="630" as="sourcePoint"/>
                        <mxPoint x="650" y="580" as="targetPoint"/>
                    </mxGeometry>
                </mxCell>
                <mxCell id="23" value="" style="endArrow=none;html=1;fontFamily=&quot;Times New Roman&quot;, SimSun, sans-serif;" edge="1" parent="1" source="11" target="13">
                    <mxGeometry width="50" height="50" relative="1" as="geometry">
                        <mxPoint x="590" y="650" as="sourcePoint"/>
                        <mxPoint x="640" y="600" as="targetPoint"/>
                    </mxGeometry>
                </mxCell>
                <mxCell id="24" value="" style="endArrow=none;html=1;fontFamily=&quot;Times New Roman&quot;, SimSun, sans-serif;" edge="1" parent="1" source="11" target="12">
                    <mxGeometry width="50" height="50" relative="1" as="geometry">
                        <mxPoint x="550" y="710" as="sourcePoint"/>
                        <mxPoint x="600" y="660" as="targetPoint"/>
                    </mxGeometry>
                </mxCell>
                <mxCell id="25" value="分组情况" style="ellipse;shape=umlEntity;whiteSpace=wrap;html=1;fontFamily=&quot;Times New Roman&quot;, SimSun, sans-serif;" vertex="1" parent="1">
                    <mxGeometry x="720" y="410" width="80" height="80" as="geometry"/>
                </mxCell>
                <mxCell id="26" value="" style="endArrow=none;html=1;fontFamily=&quot;Times New Roman&quot;, SimSun, sans-serif;" edge="1" parent="1" source="13" target="25">
                    <mxGeometry width="50" height="50" relative="1" as="geometry">
                        <mxPoint x="700" y="590" as="sourcePoint"/>
                        <mxPoint x="750" y="540" as="targetPoint"/>
                    </mxGeometry>
                </mxCell>
                <mxCell id="27" value="" style="endArrow=none;html=1;fontFamily=&quot;Times New Roman&quot;, SimSun, sans-serif;" edge="1" parent="1" source="12" target="25">
                    <mxGeometry width="50" height="50" relative="1" as="geometry">
                        <mxPoint x="700" y="610" as="sourcePoint"/>
                        <mxPoint x="750" y="560" as="targetPoint"/>
                    </mxGeometry>
                </mxCell>
                <mxCell id="28" value="" style="endArrow=none;html=1;fontFamily=&quot;Times New Roman&quot;, SimSun, sans-serif;" edge="1" parent="1" source="2" target="5">
                    <mxGeometry width="50" height="50" relative="1" as="geometry">
                        <mxPoint x="170" y="260" as="sourcePoint"/>
                        <mxPoint x="310" y="330" as="targetPoint"/>
                    </mxGeometry>
                </mxCell>
                <mxCell id="29" value="" style="endArrow=none;html=1;fontFamily=&quot;Times New Roman&quot;, SimSun, sans-serif;" edge="1" parent="1" source="3" target="6">
                    <mxGeometry width="50" height="50" relative="1" as="geometry">
                        <mxPoint x="150" y="530" as="sourcePoint"/>
                        <mxPoint x="210" y="440" as="targetPoint"/>
                    </mxGeometry>
                </mxCell>
            </root>
        </mxGraphModel>
    </diagram>
</mxfile>